<svg id="SvgjsSvg1001" width="256" height="256" xmlns="http://www.w3.org/2000/svg" version="1.1">
<defs id="SvgjsDefs1002"></defs>
<g id="SvgjsG1008">
<svg xmlns="http://www.w3.org/2000/svg" viewBox="0 0 512 512" width="256" height="256">
<path d="M97.34 229.834a3.255 3.255 0 0 1-3.255-3.255v-8.594c0-1.798 1.457-3.268 3.255-3.268s3.255 1.442 3.255 3.24v8.622a3.255 3.255 0 0 1-3.255 3.255zm0 42.032a3.255 3.255 0 0 1-3.255-3.255v-25.625a3.255 3.255 0 1 1 6.51 0v25.625a3.255 3.255 0 0 1-3.255 3.255zM79.982 68.843l33.881-36.381a3.257 3.257 0 0 0-4.766-4.436L75.216 64.408a3.256 3.256 0 0 0 4.766 4.435zm45.676-49.036 6.198-6.64a3.256 3.256 0 0 0-4.761-4.441l-6.198 6.64a3.256 3.256 0 0 0 4.761 4.441zm265.103 270.551a3.255 3.255 0 0 0 3.255-3.255v-9.115a3.255 3.255 0 1 0-6.51 0v9.115a3.255 3.255 0 0 0 3.255 3.255zm0 67.032a3.255 3.255 0 0 0 3.255-3.255V304.42a3.255 3.255 0 1 0-6.51 0v49.715a3.255 3.255 0 0 0 3.255 3.255zM120.737 120.145h67.983a3.255 3.255 0 1 0 0-6.51h-67.983a3.255 3.255 0 1 0 0 6.51zm0 38.484h102.482a3.255 3.255 0 1 0 0-6.51H120.737a3.255 3.255 0 1 0 0 6.51zm0 38.484h215.09a3.255 3.255 0 1 0 0-6.51h-215.09a3.255 3.255 0 1 0 0 6.51zm0 38.482h215.09a3.255 3.255 0 1 0 0-6.51h-215.09a3.255 3.255 0 1 0 0 6.51zm0 38.484h215.09a3.255 3.255 0 1 0 0-6.51h-215.09a3.255 3.255 0 1 0 0 6.51zm0 38.484h215.09a3.255 3.255 0 1 0 0-6.51h-215.09a3.255 3.255 0 1 0 0 6.51zm0 38.481h215.09a3.255 3.255 0 1 0 0-6.51h-215.09a3.255 3.255 0 1 0 0 6.51z" fill="#03a9f4"></path>
<path d="M373.179 365.209V31.344c0-17.214-13.985-31.199-31.199-31.199H164.968c-.781 0-1.797.416-2.37 1.041L74.132 96.137c-.547.573-.885 1.563-.885 2.214V408.57c0 17.214 14.011 31.199 31.199 31.199h187.272c.781 39.871 33.439 72.086 73.492 72.086 40.548 0 73.544-32.996 73.544-73.544 0-37.866-28.751-69.117-65.575-73.102zm-252.431 17.813a3.256 3.256 0 0 0 0 6.51h189.486c-10.495 11.797-17.24 27.006-18.36 43.726H104.445c-13.621 0-24.689-11.068-24.689-24.689V101.606h57.268c17.214 0 31.199-13.985 31.199-31.199V6.655H341.98c13.62 0 24.688 11.068 24.688 24.688v333.449c-.469 0-.964-.026-1.459-.026-18.516 0-35.47 6.901-48.413 18.256H120.748zm268.108 38.804a3.254 3.254 0 0 1-4.61 0l-15.782-15.782v72.399c0 1.797-1.459 3.255-3.255 3.255s-3.255-1.459-3.255-3.255v-72.399l-15.782 15.782c-1.276 1.276-3.333 1.276-4.609 0s-1.276-3.334 0-4.61l21.355-21.329a3.253 3.253 0 0 1 4.609 0l21.329 21.329a3.253 3.253 0 0 1 0 4.61z" fill="#03a9f4"></path>
<path d="M276.561 33.557c-34.506 0-62.554 28.048-62.554 62.528 0 35.054 28.621 62.554 62.554 62.554 34.741 0 62.528-28.308 62.528-62.554 0-34.48-28.048-62.528-62.528-62.528zm27.735 76.149a13.142 13.142 0 0 0-11.094 3.802l-16.642 16.641-16.667-16.667c-2.969-2.943-7.11-4.297-11.355-3.724-5.729.834-15.547 3.36-22.292 10.99a55.932 55.932 0 0 1-5.73-24.663c0-30.886 25.131-56.017 56.044-56.017 30.887 0 56.018 25.131 56.018 56.017a55.907 55.907 0 0 1-5.729 24.637c-6.797-7.709-16.745-10.209-22.553-11.016z" fill="#0277bd"></path>
<path d="M301.718 74.626c0 13.672-10.808 34.767-25.158 34.767-14.376 0-25.183-21.095-25.183-34.767 0-13.855 11.302-25.157 25.183-25.157 13.855 0 25.158 11.302 25.158 25.157z" fill="#0277bd"></path>
</svg>
</g>
</svg>